<svg version="1.1" xmlns="http://www.w3.org/2000/svg" viewBox="0 0 220 70" width="220" height="70">
  <!-- svg-source:excalidraw -->
  
  <defs>
    <style class="style-fonts">
      @font-face {
        font-family: "Virgil";
        src: url("http://localhost:5001/static/js/excalidraw-assets//dist/excalidraw-assets/Virgil.woff2");
      }
      @font-face {
        font-family: "Cascadia";
        src: url("http://localhost:5001/static/js/excalidraw-assets//dist/excalidraw-assets/Cascadia.woff2");
      }
      @font-face {
        font-family: "Assistant";
        src: url("http://localhost:5001/static/js/excalidraw-assets//dist/excalidraw-assets/Assistant-Regular.woff2");
      }
    </style>
    
  </defs>
  <rect x="0" y="0" width="220" height="70" fill="#ffffff"></rect><a href="http://localhost:5001/excalidraw-server/house/top.excalidraw"><g stroke-linecap="round" transform="translate(10 10) rotate(0 100 25)"><path d="M0 0 L200 0 L200 50 L0 50" stroke="none" stroke-width="0" fill="#fef3bd"></path><path d="M0 0 C40 0, 80 0, 200 0 M0 0 C59.49 0, 118.98 0, 200 0 M200 0 C200 18.79, 200 37.58, 200 50 M200 0 C200 16.28, 200 32.56, 200 50 M200 50 C125.33 50, 50.66 50, 0 50 M200 50 C123.15 50, 46.3 50, 0 50 M0 50 C0 33.9, 0 17.8, 0 0 M0 50 C0 33.63, 0 17.26, 0 0" stroke="#000000" stroke-width="1" fill="none"></path></g></a><g transform="translate(15 15) rotate(0 26.44999999999999 9.349999999999994)"><text x="0" y="0" font-family="Virgil, Segoe UI Emoji" font-size="17px" fill="#000000" text-anchor="start" style="white-space: pre;" direction="ltr" dominant-baseline="text-before-edge">旧 top</text></g></svg>